<svg width="179" height="23" viewBox="0 0 179 23" fill="none" xmlns="http://www.w3.org/2000/svg">
<path d="M63.9814 18L59.5439 2H62.083L65.2002 14.3906H65.3486L68.5908 2H71.1064L74.3486 14.3984H74.4971L77.6064 2H80.1533L75.708 18H73.2783L69.9111 6.01563H69.7861L66.4189 18H63.9814ZM82.167 18V6H84.5029V18H82.167ZM83.3467 4.14844C82.9404 4.14844 82.5915 4.01302 82.2998 3.74219C82.0133 3.46615 81.8701 3.13802 81.8701 2.75781C81.8701 2.3724 82.0133 2.04427 82.2998 1.77344C82.5915 1.4974 82.9404 1.35937 83.3467 1.35937C83.7529 1.35937 84.0993 1.4974 84.3857 1.77344C84.6774 2.04427 84.8232 2.3724 84.8232 2.75781C84.8232 3.13802 84.6774 3.46615 84.3857 3.74219C84.0993 4.01302 83.7529 4.14844 83.3467 4.14844ZM89.9814 10.875V18H87.6455V6H89.8877V7.95312H90.0361C90.3122 7.31771 90.7445 6.80729 91.333 6.42187C91.9268 6.03646 92.6742 5.84375 93.5752 5.84375C94.3929 5.84375 95.109 6.01563 95.7236 6.35938C96.3382 6.69792 96.8148 7.20312 97.1533 7.875C97.4919 8.54687 97.6611 9.3776 97.6611 10.3672V18H95.3252V10.6484C95.3252 9.77865 95.0986 9.09896 94.6455 8.60937C94.1924 8.11458 93.57 7.86719 92.7783 7.86719C92.2367 7.86719 91.7549 7.98437 91.333 8.21875C90.9163 8.45312 90.5856 8.79687 90.3408 9.25C90.1012 9.69792 89.9814 10.2396 89.9814 10.875ZM105.825 22.75C104.872 22.75 104.052 22.625 103.364 22.375C102.682 22.125 102.125 21.7943 101.692 21.3828C101.26 20.9714 100.937 20.5208 100.724 20.0313L102.731 19.2031C102.872 19.4323 103.06 19.6745 103.294 19.9297C103.534 20.1901 103.856 20.4115 104.263 20.5938C104.674 20.776 105.203 20.8672 105.849 20.8672C106.734 20.8672 107.466 20.651 108.044 20.2188C108.622 19.7917 108.911 19.1094 108.911 18.1719V15.8125H108.763C108.622 16.0677 108.419 16.3516 108.153 16.6641C107.893 16.9766 107.534 17.2474 107.075 17.4766C106.617 17.7057 106.021 17.8203 105.286 17.8203C104.338 17.8203 103.484 17.599 102.724 17.1562C101.968 16.7083 101.369 16.0495 100.927 15.1797C100.489 14.3047 100.271 13.2292 100.271 11.9531C100.271 10.6771 100.487 9.58333 100.919 8.67187C101.356 7.76042 101.955 7.0625 102.716 6.57813C103.476 6.08854 104.338 5.84375 105.302 5.84375C106.047 5.84375 106.648 5.96875 107.106 6.21875C107.565 6.46354 107.922 6.75 108.177 7.07812C108.437 7.40625 108.638 7.69531 108.778 7.94531H108.95V6H111.239V18.2656C111.239 19.2969 111 20.1432 110.521 20.8047C110.041 21.4661 109.393 21.9557 108.575 22.2734C107.763 22.5911 106.846 22.75 105.825 22.75ZM105.802 15.8828C106.474 15.8828 107.041 15.7266 107.505 15.4141C107.974 15.0964 108.328 14.6432 108.567 14.0547C108.812 13.4609 108.935 12.75 108.935 11.9219C108.935 11.1146 108.815 10.4036 108.575 9.78906C108.336 9.17448 107.984 8.69531 107.521 8.35156C107.057 8.0026 106.484 7.82812 105.802 7.82812C105.099 7.82812 104.513 8.01042 104.044 8.375C103.575 8.73437 103.221 9.22396 102.981 9.84375C102.747 10.4635 102.63 11.1562 102.63 11.9219C102.63 12.7083 102.75 13.3984 102.989 13.9922C103.229 14.5859 103.583 15.0495 104.052 15.3828C104.526 15.7161 105.109 15.8828 105.802 15.8828ZM114.372 18V6H116.614V7.95312H116.763C117.013 7.29167 117.422 6.77604 117.989 6.40625C118.557 6.03125 119.237 5.84375 120.028 5.84375C120.83 5.84375 121.502 6.03125 122.044 6.40625C122.591 6.78125 122.994 7.29687 123.255 7.95312H123.38C123.666 7.3125 124.122 6.80208 124.747 6.42187C125.372 6.03646 126.117 5.84375 126.981 5.84375C128.07 5.84375 128.958 6.1849 129.646 6.86719C130.338 7.54948 130.685 8.57812 130.685 9.95312V18H128.349V10.1719C128.349 9.35937 128.127 8.77083 127.685 8.40625C127.242 8.04167 126.713 7.85938 126.099 7.85938C125.338 7.85938 124.747 8.09375 124.325 8.5625C123.903 9.02604 123.692 9.6224 123.692 10.3516V18H121.364V10.0234C121.364 9.3724 121.161 8.84896 120.755 8.45312C120.349 8.05729 119.82 7.85938 119.169 7.85938C118.726 7.85938 118.317 7.97656 117.942 8.21094C117.573 8.4401 117.273 8.76042 117.044 9.17188C116.82 9.58333 116.708 10.0599 116.708 10.6016V18H114.372ZM137.308 18.2656C136.547 18.2656 135.86 18.125 135.245 17.8437C134.631 17.5573 134.144 17.1432 133.784 16.6016C133.43 16.0599 133.253 15.3958 133.253 14.6094C133.253 13.9323 133.383 13.375 133.644 12.9375C133.904 12.5 134.256 12.1536 134.698 11.8984C135.141 11.6432 135.636 11.4505 136.183 11.3203C136.729 11.1901 137.287 11.0911 137.854 11.0234C138.573 10.9401 139.157 10.8724 139.604 10.8203C140.052 10.763 140.378 10.6719 140.581 10.5469C140.784 10.4219 140.886 10.2187 140.886 9.9375V9.88281C140.886 9.20052 140.693 8.67187 140.308 8.29687C139.927 7.92187 139.36 7.73437 138.604 7.73437C137.818 7.73437 137.198 7.90885 136.745 8.25781C136.297 8.60156 135.987 8.98437 135.815 9.40625L133.62 8.90625C133.881 8.17708 134.261 7.58854 134.761 7.14062C135.266 6.6875 135.847 6.35937 136.503 6.15625C137.159 5.94792 137.849 5.84375 138.573 5.84375C139.052 5.84375 139.56 5.90104 140.097 6.01563C140.638 6.125 141.144 6.32812 141.612 6.625C142.086 6.92187 142.474 7.34635 142.776 7.89844C143.078 8.44531 143.229 9.15625 143.229 10.0313V18H140.948V16.3594H140.854C140.703 16.6615 140.477 16.9583 140.175 17.25C139.873 17.5417 139.485 17.7839 139.011 17.9766C138.537 18.1693 137.969 18.2656 137.308 18.2656ZM137.815 16.3906C138.461 16.3906 139.013 16.263 139.472 16.0078C139.935 15.7526 140.287 15.4193 140.526 15.0078C140.771 14.5911 140.894 14.1458 140.894 13.6719V12.125C140.81 12.2083 140.649 12.2865 140.409 12.3594C140.175 12.4271 139.907 12.487 139.604 12.5391C139.302 12.5859 139.008 12.6302 138.722 12.6719C138.435 12.7083 138.196 12.7396 138.003 12.7656C137.55 12.8229 137.136 12.9193 136.761 13.0547C136.391 13.1901 136.094 13.3854 135.87 13.6406C135.651 13.8906 135.542 14.224 135.542 14.6406C135.542 15.2187 135.756 15.6562 136.183 15.9531C136.61 16.2448 137.154 16.3906 137.815 16.3906ZM148.677 10.875V18H146.341V6H148.583V7.95312H148.731C149.007 7.31771 149.44 6.80729 150.028 6.42187C150.622 6.03646 151.369 5.84375 152.271 5.84375C153.088 5.84375 153.804 6.01563 154.419 6.35938C155.034 6.69792 155.51 7.20312 155.849 7.875C156.187 8.54687 156.356 9.3776 156.356 10.3672V18H154.021V10.6484C154.021 9.77865 153.794 9.09896 153.341 8.60937C152.888 8.11458 152.265 7.86719 151.474 7.86719C150.932 7.86719 150.45 7.98437 150.028 8.21875C149.612 8.45312 149.281 8.79687 149.036 9.25C148.797 9.69792 148.677 10.2396 148.677 10.875ZM161.028 18H158.466L164.224 2H167.013L172.771 18H170.208L165.685 4.90625H165.56L161.028 18ZM161.458 11.7344H169.771V13.7656H161.458V11.7344ZM175.001 18V6H177.337V18H175.001ZM176.181 4.14844C175.774 4.14844 175.425 4.01302 175.134 3.74219C174.847 3.46615 174.704 3.13802 174.704 2.75781C174.704 2.3724 174.847 2.04427 175.134 1.77344C175.425 1.4974 175.774 1.35937 176.181 1.35937C176.587 1.35937 176.933 1.4974 177.22 1.77344C177.511 2.04427 177.657 2.3724 177.657 2.75781C177.657 3.13802 177.511 3.46615 177.22 3.74219C176.933 4.01302 176.587 4.14844 176.181 4.14844Z" fill="#F92C5D"/>
<path d="M22.1895 11.316C22.2414 11.4136 22.2816 11.4077 22.3098 11.2982L23.2337 7.57543C23.2415 7.54468 23.2589 7.51752 23.2831 7.49815C23.3073 7.47878 23.337 7.46829 23.3676 7.4683H26.1511C26.1672 7.46827 26.1831 7.47215 26.1976 7.47964C26.2121 7.48714 26.2247 7.49804 26.2345 7.5115C26.2444 7.52497 26.2511 7.54063 26.2543 7.55729C26.2575 7.57395 26.2569 7.59115 26.2528 7.60756L23.2642 19.4811C23.2405 19.5752 23.206 19.5799 23.1608 19.4954L16.2055 6.40593C16.1843 6.36624 16.1534 6.33314 16.1159 6.30994C16.0784 6.28675 16.0357 6.27428 15.9919 6.2738L8.20772 6.23095C8.08566 6.22976 8.07436 6.26606 8.17381 6.33986C11.1686 8.56221 14.4194 10.1805 17.9261 11.1946C17.9589 11.2044 17.9877 11.225 18.0082 11.2534C18.0287 11.2817 18.0398 11.3163 18.0397 11.3518V14.3175C18.0398 14.3282 18.0375 14.3388 18.033 14.3485C18.0285 14.3582 18.0219 14.3667 18.0138 14.3734C18.0056 14.3801 17.9961 14.3848 17.9859 14.3872C17.9757 14.3896 17.9651 14.3895 17.9549 14.3871C10.82 12.5159 5.23778 8.57173 0.0776953 3.16704C-0.046617 3.03729 -0.0217548 2.98313 0.152282 3.00456C0.464193 3.04265 0.776104 3.0611 1.08801 3.05991C6.52724 3.03134 12.0444 3.02836 17.6396 3.05098C17.6844 3.05096 17.7284 3.0637 17.7672 3.08787C17.8059 3.11204 17.838 3.14677 17.86 3.18846L22.1895 11.316Z" fill="#F92C5D"/>
<path d="M26.3358 6.27055L21.8199 6.22235C21.7974 6.22217 21.7752 6.21668 21.755 6.20631C21.7348 6.19594 21.7172 6.18096 21.7034 6.16251C21.6897 6.14407 21.6802 6.12266 21.6757 6.09991C21.6712 6.07717 21.6718 6.0537 21.6775 6.0313L22.403 3.1388C22.4094 3.11316 22.4237 3.09049 22.4436 3.07433C22.4636 3.05817 22.4881 3.04944 22.5132 3.04952H28.5141C28.5578 3.04964 28.6002 3.06498 28.6346 3.09311C28.669 3.12124 28.6934 3.16056 28.704 3.20486L30.6076 11.1967C30.6382 11.3265 30.6845 11.333 30.7467 11.2164L35.0388 3.14237C35.0615 3.10066 35.0941 3.06599 35.1334 3.04185C35.1727 3.01771 35.2172 3.00496 35.2626 3.00488L52.6957 3.06023C52.7522 3.06023 52.7601 3.08106 52.7194 3.12273C52.1645 3.69528 51.6096 4.26723 51.0548 4.83859C46.6304 9.39696 41.0041 12.8805 34.949 14.3571C34.9388 14.3595 34.9282 14.3595 34.9181 14.357C34.9079 14.3545 34.8984 14.3497 34.8903 14.3428C34.8822 14.336 34.8756 14.3273 34.8711 14.3174C34.8666 14.3075 34.8642 14.2966 34.8642 14.2856V11.3164C34.8643 11.2895 34.8727 11.2634 34.888 11.2421C34.9033 11.2209 34.9247 11.2055 34.949 11.1985C38.5122 10.1332 41.7726 8.50897 44.7301 6.32591C44.8273 6.25449 44.8171 6.21878 44.6996 6.21878H36.8679C36.8325 6.21872 36.7976 6.22878 36.7669 6.24793C36.7362 6.26708 36.7108 6.29462 36.6933 6.32769L29.6414 19.5654C29.6131 19.6177 29.5917 19.6148 29.577 19.5564L26.4409 6.3634C26.4346 6.33718 26.4209 6.31387 26.4019 6.29709C26.3829 6.2803 26.3597 6.27098 26.3358 6.27055Z" fill="#F92C5D"/>
</svg>
